<svg xmlns="http://www.w3.org/2000/svg" width="1200" height="250" viewBox="0 0 1200 250"><title>Aquí Golf — Logo horizontal sin firma blanco</title>
<path fill="#F5F4EF" fill-rule="evenodd" d="M135.236,125.022 L107.987,125.022 L99.224,148.498 L115.087,148.498 L115.087,151.76 L84,151.76 L84,148.498 L95.833,148.498 L127.112,64 L129.095,64 L159.095,148.498 L170.608,148.498 L170.608,151.76 L129.735,151.76 L129.735,148.498 L143.615,148.498 Z M109.202,121.76 L134.084,121.76 L121.995,87.411 L121.739,87.411 Z M219.222,143.38 L218.966,143.38 C215.426,149.478 210.437,152.527 203.998,152.527 C197.857,152.527 192.282,149.83 187.271,144.436 C182.261,139.041 179.755,132.656 179.755,125.278 C179.755,118.37 182.047,112.411 186.632,107.4 C191.216,102.39 196.535,99.884 202.591,99.884 C209.968,99.884 215.426,103.509 218.966,110.758 L219.222,110.758 L219.222,100.652 C224.296,101.206 229.179,101.483 233.87,101.483 L241.098,101.483 L241.098,104.746 L231.631,104.746 L231.631,181.631 L240.33,181.631 L240.33,185.277 L208.859,185.277 L208.859,181.631 L219.222,181.631 Z M219.222,126.75 C219.222,121.59 218.827,117.677 218.038,115.012 C217.249,112.347 215.608,109.639 213.113,106.888 C210.618,104.138 207.282,102.763 203.103,102.763 C201.056,102.763 199.233,103.445 197.634,104.81 C196.034,106.174 195.043,108.328 194.659,111.27 C194.275,114.212 194.083,119.372 194.083,126.75 C194.083,136.088 194.83,142.24 196.322,145.203 C197.815,148.167 200.288,149.649 203.742,149.649 C207.154,149.649 210.224,148.615 212.953,146.547 C215.682,144.478 217.409,142.016 218.134,139.159 C218.859,136.302 219.222,132.165 219.222,126.75 Z M302.952,101.483 L302.952,148.498 L311.587,148.498 L311.587,151.76 L302.952,151.76 C296.299,151.76 292.099,152.016 290.351,152.527 L290.351,140.63 L290.095,140.63 C286.257,148.562 280.223,152.527 271.993,152.527 C267.259,152.527 263.453,151.28 260.575,148.785 C257.697,146.291 256.257,141.035 256.257,133.018 L256.257,104.746 L246.982,104.746 L246.982,101.483 L268.73,101.483 L268.73,135.257 C268.73,140.545 269.05,144.201 269.69,146.227 C270.33,148.252 271.971,149.265 274.615,149.265 C278.538,149.265 282.163,147.165 285.489,142.965 C288.815,138.764 290.479,132.442 290.479,123.999 L290.479,104.746 L280.244,104.746 L280.244,101.483 Z M339.987,100.524 L339.987,148.498 L348.367,148.498 L348.367,151.76 L318.623,151.76 L318.623,148.498 L327.706,148.498 L327.706,104.746 L318.623,104.746 L318.623,101.483 L327.706,101.483 C332.098,101.483 336.192,101.164 339.987,100.524 Z M325.403,91.889 L323.74,90.29 L336.533,74.874 C338.921,72.017 340.712,70.077 341.906,69.053 C343.1,68.03 344.422,67.518 345.872,67.518 C347.237,67.518 348.452,68.04 349.518,69.085 C350.584,70.13 351.117,71.228 351.117,72.379 C351.117,74.17 350.424,75.695 349.038,76.953 C347.652,78.211 345.104,79.97 341.395,82.23 Z M443.227,123.04 L428.707,123.04 L428.707,119.777 L473.098,119.777 L473.098,123.04 L460.689,123.04 C460.689,133.999 457.171,141.856 450.135,146.611 C443.099,151.365 435.743,153.743 428.067,153.743 C416.852,153.743 407.513,149.265 400.05,140.31 C392.588,131.355 388.856,120.886 388.856,108.903 C388.856,96.75 392.673,86.228 400.306,77.337 C407.939,68.446 417.449,64 428.834,64 C434.719,64 440.348,65.706 445.721,69.117 C447.342,70.141 448.472,70.652 449.111,70.652 C450.476,70.652 451.84,69.437 453.205,67.006 L456.083,67.006 L456.979,90.29 L453.717,90.29 C450.177,74.938 441.798,67.262 428.579,67.262 C421.713,67.262 416.702,68.808 413.547,71.9 C410.391,74.991 408.462,78.893 407.758,83.605 C407.054,88.317 406.703,95.044 406.703,103.786 C406.703,119.521 407.225,129.948 408.27,135.065 C409.315,140.182 411.457,144.031 414.698,146.611 C417.939,149.191 421.905,150.48 426.596,150.48 C430.348,150.48 433.685,149.713 436.606,148.178 C439.527,146.643 441.361,144.35 442.107,141.302 C442.853,138.253 443.227,133.7 443.227,127.645 Z M481.222,126.494 C481.222,119.116 483.759,112.837 488.833,107.656 C493.908,102.475 500.198,99.884 507.703,99.884 C515.038,99.884 521.253,102.368 526.349,107.336 C531.445,112.304 533.993,118.519 533.993,125.982 C533.993,133.615 531.349,140.086 526.061,145.395 C520.773,150.704 514.526,153.359 507.319,153.359 C500.241,153.359 494.121,150.768 488.961,145.587 C483.802,140.406 481.222,134.042 481.222,126.494 Z M519.601,126.494 C519.601,118.647 519.334,113.466 518.801,110.95 C518.268,108.434 517.074,106.441 515.219,104.969 C513.364,103.498 510.816,102.763 507.575,102.763 C504.505,102.763 501.978,103.52 499.995,105.033 C498.012,106.547 496.786,108.562 496.317,111.078 C495.848,113.594 495.614,118.775 495.614,126.622 C495.614,134.511 495.902,139.734 496.477,142.293 C497.053,144.852 498.311,146.856 500.251,148.306 C502.191,149.756 504.633,150.48 507.575,150.48 C510.56,150.48 513.044,149.745 515.027,148.274 C517.01,146.802 518.268,144.756 518.801,142.133 C519.334,139.51 519.601,134.297 519.601,126.494 Z M551.455,148.498 L551.455,69.245 L542.308,69.245 L542.308,65.983 L551.071,65.983 C556.956,65.983 561.242,65.663 563.928,65.023 L563.928,148.498 L572.947,148.498 L572.947,151.76 L542.308,151.76 L542.308,148.498 Z M589.066,148.498 L589.066,104.746 L578.448,104.746 L578.448,101.483 L589.066,101.483 C588.725,90.183 591.06,81.281 596.071,74.778 C601.081,68.275 607.04,65.023 613.949,65.023 C617.275,65.023 620.164,65.983 622.616,67.902 C625.068,69.821 626.294,72.145 626.294,74.874 C626.294,76.75 625.708,78.328 624.535,79.607 C623.362,80.887 621.88,81.526 620.089,81.526 C618.554,81.526 617.232,80.993 616.124,79.927 C615.015,78.861 614.46,77.518 614.46,75.897 C614.46,73.382 615.868,71.292 618.682,69.629 C617.403,68.478 615.526,67.902 613.053,67.902 C610.665,67.902 608.405,68.627 606.273,70.077 C604.141,71.527 602.84,73.712 602.371,76.633 C601.902,79.554 601.667,84.256 601.667,90.737 L601.667,101.483 L613.565,101.483 L613.565,104.746 L601.667,104.746 L601.667,148.498 L612.414,148.498 L612.414,151.76 L579.536,151.76 L579.536,148.498 Z "/>
<path fill="#C4AA79" fill-rule="evenodd" d="M674,62 L677,62 L677,186 L674,186 Z "/>
<path fill="#C4AA79" fill-rule="evenodd" d="M784.453,102.42 L788.116,102.1 C788.29,103.568 788.694,104.772 789.328,105.713 C789.962,106.654 790.946,107.415 792.281,107.995 C793.615,108.576 795.117,108.866 796.785,108.866 C798.266,108.866 799.574,108.646 800.709,108.206 C801.843,107.765 802.687,107.161 803.241,106.394 C803.795,105.626 804.072,104.789 804.072,103.881 C804.072,102.96 803.805,102.156 803.271,101.469 C802.737,100.782 801.857,100.204 800.629,99.737 C799.841,99.43 798.099,98.953 795.404,98.306 C792.708,97.659 790.819,97.048 789.738,96.474 C788.337,95.74 787.292,94.829 786.605,93.741 C785.918,92.654 785.574,91.436 785.574,90.088 C785.574,88.606 785.994,87.222 786.835,85.934 C787.676,84.646 788.904,83.668 790.519,83.001 C792.134,82.334 793.929,82 795.904,82 C798.079,82 799.998,82.35 801.66,83.051 C803.321,83.752 804.599,84.783 805.493,86.144 C806.388,87.505 806.868,89.047 806.935,90.769 L803.211,91.049 C803.011,89.194 802.334,87.792 801.179,86.845 C800.025,85.897 798.32,85.423 796.064,85.423 C793.715,85.423 792.004,85.854 790.929,86.715 C789.855,87.575 789.318,88.613 789.318,89.828 C789.318,90.882 789.698,91.75 790.459,92.43 C791.206,93.111 793.158,93.808 796.314,94.522 C799.471,95.236 801.636,95.86 802.811,96.394 C804.519,97.181 805.78,98.179 806.594,99.387 C807.409,100.595 807.816,101.986 807.816,103.561 C807.816,105.123 807.369,106.594 806.474,107.975 C805.58,109.357 804.296,110.431 802.621,111.198 C800.946,111.966 799.06,112.35 796.965,112.35 C794.309,112.35 792.084,111.963 790.289,111.188 C788.493,110.414 787.085,109.25 786.064,107.695 C785.043,106.14 784.506,104.382 784.453,102.42 Z M814.816,111.849 L814.816,82.5 L818.699,82.5 L818.699,111.849 Z M840.414,100.338 L840.414,96.895 L852.846,96.875 L852.846,107.765 C850.937,109.287 848.969,110.431 846.94,111.198 C844.911,111.966 842.829,112.35 840.694,112.35 C837.811,112.35 835.192,111.732 832.836,110.498 C830.481,109.263 828.702,107.478 827.501,105.143 C826.3,102.807 825.699,100.198 825.699,97.315 C825.699,94.459 826.297,91.793 827.491,89.317 C828.686,86.841 830.404,85.003 832.646,83.802 C834.888,82.601 837.471,82 840.394,82 C842.516,82 844.434,82.344 846.149,83.031 C847.864,83.718 849.209,84.676 850.183,85.904 C851.158,87.132 851.898,88.733 852.406,90.708 L848.902,91.669 C848.462,90.175 847.914,89 847.26,88.146 C846.607,87.292 845.672,86.608 844.458,86.094 C843.243,85.58 841.895,85.323 840.414,85.323 C838.639,85.323 837.104,85.594 835.809,86.134 C834.515,86.675 833.47,87.385 832.676,88.266 C831.882,89.147 831.265,90.115 830.824,91.169 C830.077,92.984 829.703,94.953 829.703,97.075 C829.703,99.691 830.154,101.879 831.055,103.641 C831.956,105.403 833.267,106.711 834.989,107.565 C836.71,108.419 838.539,108.846 840.474,108.846 C842.156,108.846 843.797,108.523 845.399,107.875 C847,107.228 848.215,106.537 849.042,105.803 L849.042,100.338 Z M859.846,111.849 L859.846,82.5 L863.83,82.5 L879.245,105.543 L879.245,82.5 L882.969,82.5 L882.969,111.849 L878.985,111.849 L863.57,88.787 L863.57,111.849 Z M889.969,111.849 L901.24,82.5 L905.424,82.5 L917.435,111.849 L913.011,111.849 L909.588,102.96 L897.316,102.96 L894.093,111.849 Z M898.437,99.797 L908.386,99.797 L905.323,91.669 C904.389,89.2 903.695,87.172 903.241,85.583 C902.868,87.465 902.341,89.334 901.66,91.189 Z M934.105,111.849 L934.105,85.964 L924.435,85.964 L924.435,82.5 L947.698,82.5 L947.698,85.964 L937.989,85.964 L937.989,111.849 Z M973.897,82.5 L977.781,82.5 L977.781,99.457 C977.781,102.407 977.447,104.749 976.78,106.484 C976.112,108.219 974.908,109.63 973.166,110.718 C971.424,111.806 969.139,112.35 966.309,112.35 C963.56,112.35 961.311,111.876 959.563,110.928 C957.814,109.981 956.566,108.609 955.819,106.814 C955.072,105.019 954.698,102.567 954.698,99.457 L954.698,82.5 L958.582,82.5 L958.582,99.437 C958.582,101.986 958.819,103.865 959.292,105.073 C959.766,106.28 960.58,107.211 961.735,107.865 C962.889,108.519 964.301,108.846 965.969,108.846 C968.825,108.846 970.86,108.199 972.075,106.904 C973.289,105.61 973.897,103.121 973.897,99.437 Z M984.781,111.849 L984.781,82.5 L997.793,82.5 C1000.409,82.5 1002.398,82.764 1003.759,83.291 C1005.12,83.818 1006.208,84.749 1007.022,86.084 C1007.836,87.419 1008.243,88.893 1008.243,90.508 C1008.243,92.59 1007.569,94.345 1006.221,95.773 C1004.873,97.201 1002.791,98.109 999.975,98.496 C1001.003,98.99 1001.784,99.477 1002.318,99.958 C1003.452,100.999 1004.526,102.3 1005.541,103.861 L1010.646,111.849 L1005.761,111.849 L1001.877,105.743 C1000.743,103.981 999.808,102.633 999.074,101.699 C998.34,100.765 997.683,100.111 997.103,99.737 C996.522,99.364 995.931,99.103 995.331,98.957 C994.89,98.863 994.17,98.816 993.169,98.816 L988.664,98.816 L988.664,111.849 Z M988.664,95.453 L997.012,95.453 C998.787,95.453 1000.176,95.27 1001.177,94.903 C1002.177,94.536 1002.938,93.948 1003.459,93.141 C1003.979,92.333 1004.24,91.456 1004.24,90.508 C1004.24,89.12 1003.736,87.979 1002.728,87.085 C1001.72,86.191 1000.129,85.744 997.953,85.744 L988.664,85.744 Z M1017.646,111.849 L1017.646,82.5 L1038.866,82.5 L1038.866,85.964 L1021.53,85.964 L1021.53,94.953 L1037.765,94.953 L1037.765,98.396 L1021.53,98.396 L1021.53,108.386 L1039.547,108.386 L1039.547,111.849 Z "/>
<path fill="#C4AA79" fill-rule="evenodd" d="M794.002,163.869 L794.002,134.521 L805.073,134.521 C807.021,134.521 808.51,134.614 809.537,134.801 C810.979,135.041 812.187,135.498 813.161,136.172 C814.135,136.846 814.919,137.79 815.513,139.005 C816.107,140.219 816.404,141.554 816.404,143.009 C816.404,145.505 815.61,147.617 814.022,149.345 C812.433,151.073 809.564,151.938 805.413,151.938 L797.886,151.938 L797.886,163.869 Z M797.886,148.474 L805.473,148.474 C807.982,148.474 809.764,148.007 810.819,147.073 C811.873,146.139 812.4,144.824 812.4,143.129 C812.4,141.901 812.09,140.85 811.469,139.976 C810.849,139.102 810.031,138.524 809.017,138.244 C808.363,138.071 807.155,137.984 805.393,137.984 L797.886,137.984 Z M823.404,163.869 L823.404,134.521 L836.417,134.521 C839.033,134.521 841.021,134.784 842.383,135.311 C843.744,135.838 844.832,136.769 845.646,138.104 C846.46,139.439 846.867,140.913 846.867,142.528 C846.867,144.61 846.193,146.365 844.845,147.793 C843.497,149.222 841.415,150.129 838.599,150.516 C839.626,151.01 840.407,151.497 840.941,151.978 C842.076,153.019 843.15,154.32 844.164,155.881 L849.269,163.869 L844.384,163.869 L840.501,157.763 C839.366,156.001 838.432,154.653 837.698,153.719 C836.964,152.785 836.307,152.131 835.726,151.757 C835.145,151.384 834.555,151.123 833.954,150.977 C833.514,150.883 832.793,150.836 831.792,150.836 L827.288,150.836 L827.288,163.869 Z M827.288,147.473 L835.636,147.473 C837.411,147.473 838.799,147.29 839.8,146.923 C840.801,146.556 841.562,145.968 842.082,145.161 C842.603,144.353 842.863,143.476 842.863,142.528 C842.863,141.14 842.359,139.999 841.352,139.105 C840.344,138.211 838.752,137.764 836.577,137.764 L827.288,137.764 Z M856.269,149.575 C856.269,144.704 857.577,140.89 860.193,138.134 C862.809,135.378 866.186,134 870.323,134 C873.032,134 875.475,134.647 877.65,135.942 C879.826,137.236 881.484,139.042 882.625,141.357 C883.766,143.673 884.337,146.299 884.337,149.235 C884.337,152.211 883.736,154.874 882.535,157.223 C881.334,159.572 879.632,161.35 877.43,162.558 C875.228,163.766 872.852,164.37 870.303,164.37 C867.54,164.37 865.071,163.702 862.896,162.368 C860.72,161.033 859.072,159.211 857.951,156.902 C856.83,154.593 856.269,152.151 856.269,149.575 Z M860.273,149.635 C860.273,153.172 861.224,155.958 863.126,157.993 C865.028,160.029 867.413,161.046 870.283,161.046 C873.206,161.046 875.611,160.019 877.5,157.963 C879.388,155.908 880.333,152.992 880.333,149.215 C880.333,146.826 879.929,144.74 879.122,142.959 C878.314,141.177 877.133,139.796 875.578,138.815 C874.023,137.834 872.278,137.343 870.343,137.343 C867.594,137.343 865.228,138.288 863.246,140.176 C861.264,142.065 860.273,145.218 860.273,149.635 Z M891.39,155.541 L894.893,155.061 C894.987,157.303 895.407,158.838 896.155,159.665 C896.902,160.493 897.936,160.906 899.258,160.906 C900.232,160.906 901.073,160.683 901.78,160.236 C902.487,159.788 902.975,159.181 903.242,158.414 C903.508,157.646 903.642,156.422 903.642,154.74 L903.642,134.521 L907.526,134.521 L907.526,154.52 C907.526,156.976 907.229,158.878 906.635,160.226 C906.041,161.574 905.1,162.601 903.812,163.309 C902.524,164.016 901.013,164.37 899.278,164.37 C896.702,164.37 894.73,163.629 893.362,162.147 C891.994,160.666 891.337,158.464 891.39,155.541 Z M914.526,163.869 L914.526,134.521 L935.746,134.521 L935.746,137.984 L918.409,137.984 L918.409,146.973 L934.645,146.973 L934.645,150.416 L918.409,150.416 L918.409,160.406 L936.427,160.406 L936.427,163.869 Z M965.489,153.579 L969.372,154.56 C968.558,157.75 967.094,160.182 964.978,161.857 C962.863,163.532 960.277,164.37 957.221,164.37 C954.057,164.37 951.485,163.726 949.503,162.438 C947.521,161.15 946.013,159.285 944.979,156.842 C943.944,154.4 943.427,151.777 943.427,148.975 C943.427,145.918 944.011,143.252 945.179,140.977 C946.347,138.701 948.008,136.973 950.164,135.792 C952.319,134.611 954.691,134.02 957.281,134.02 C960.217,134.02 962.686,134.767 964.688,136.262 C966.69,137.757 968.084,139.859 968.872,142.568 L965.048,143.469 C964.367,141.334 963.38,139.779 962.085,138.805 C960.791,137.83 959.162,137.343 957.201,137.343 C954.945,137.343 953.06,137.884 951.545,138.965 C950.03,140.046 948.966,141.497 948.352,143.319 C947.738,145.141 947.431,147.019 947.431,148.955 C947.431,151.45 947.795,153.629 948.522,155.491 C949.249,157.353 950.38,158.744 951.915,159.665 C953.45,160.586 955.112,161.046 956.9,161.046 C959.076,161.046 960.917,160.419 962.426,159.165 C963.934,157.91 964.955,156.048 965.489,153.579 Z M986.042,163.869 L986.042,137.984 L976.372,137.984 L976.372,134.521 L999.635,134.521 L999.635,137.984 L989.926,137.984 L989.926,163.869 Z M1006.635,154.44 L1010.299,154.12 C1010.472,155.588 1010.876,156.792 1011.51,157.733 C1012.144,158.674 1013.128,159.435 1014.463,160.015 C1015.797,160.596 1017.299,160.886 1018.967,160.886 C1020.449,160.886 1021.756,160.666 1022.891,160.226 C1024.025,159.785 1024.87,159.181 1025.423,158.414 C1025.977,157.646 1026.254,156.809 1026.254,155.901 C1026.254,154.98 1025.987,154.176 1025.453,153.489 C1024.92,152.802 1024.039,152.224 1022.811,151.757 C1022.023,151.45 1020.282,150.973 1017.586,150.326 C1014.89,149.679 1013.001,149.068 1011.92,148.494 C1010.519,147.76 1009.474,146.849 1008.787,145.761 C1008.1,144.674 1007.756,143.456 1007.756,142.108 C1007.756,140.626 1008.177,139.242 1009.017,137.954 C1009.858,136.666 1011.086,135.688 1012.701,135.021 C1014.316,134.354 1016.111,134.02 1018.086,134.02 C1020.262,134.02 1022.18,134.37 1023.842,135.071 C1025.503,135.772 1026.781,136.803 1027.676,138.164 C1028.57,139.525 1029.05,141.067 1029.117,142.789 L1025.393,143.069 C1025.193,141.214 1024.516,139.812 1023.361,138.865 C1022.207,137.917 1020.502,137.443 1018.246,137.443 C1015.897,137.443 1014.186,137.874 1013.111,138.735 C1012.037,139.595 1011.5,140.633 1011.5,141.848 C1011.5,142.902 1011.88,143.77 1012.641,144.45 C1013.388,145.131 1015.34,145.828 1018.497,146.542 C1021.653,147.256 1023.818,147.88 1024.993,148.414 C1026.701,149.201 1027.963,150.199 1028.777,151.407 C1029.591,152.615 1029.998,154.006 1029.998,155.581 C1029.998,157.143 1029.551,158.614 1028.656,159.995 C1027.762,161.377 1026.478,162.451 1024.803,163.219 C1023.128,163.986 1021.243,164.37 1019.147,164.37 C1016.491,164.37 1014.266,163.983 1012.471,163.208 C1010.676,162.434 1009.268,161.27 1008.247,159.715 C1007.226,158.16 1006.688,156.402 1006.635,154.44 Z "/>
</svg>
